<?xml version="1.0" standalone="no"?><!DOCTYPE svg PUBLIC "-//W3C//DTD SVG 1.1//EN" "http://www.w3.org/Graphics/SVG/1.1/DTD/svg11.dtd"><svg t="1651655531534" class="icon" viewBox="0 0 1024 1024" version="1.1" xmlns="http://www.w3.org/2000/svg" p-id="5946" xmlns:xlink="http://www.w3.org/1999/xlink" width="200" height="200"><defs><style type="text/css">@font-face { font-family: feedback-iconfont; src: url("//at.alicdn.com/t/font_1031158_u69w8yhxdu.woff2?t=1630033759944") format("woff2"), url("//at.alicdn.com/t/font_1031158_u69w8yhxdu.woff?t=1630033759944") format("woff"), url("//at.alicdn.com/t/font_1031158_u69w8yhxdu.ttf?t=1630033759944") format("truetype"); }
</style></defs><path d="M645.4 843.5H378.2c-68.6 0-116.4-16.8-146.1-51.3-29.8-34.6-39.8-86.6-29.7-154.3l24.8-192.8c16.2-88.4 75.9-119.4 122.2-119.4h325.7c46.4 0 102.8 30.8 121.9 117.3l25.2 195.4c9.1 63.1-2.3 113.6-33.7 149.9-31.2 36.1-80.7 55.2-143.1 55.2zM349.5 373.7c-14.2 0-61.4 5.7-74.8 78.8l-24.7 192c-8 53.8-1.8 92.8 18.5 116.4 20.1 23.3 56 34.6 109.7 34.6h267.1c33.5 0 79.3-6.7 107-38.6 21.9-25.3 29.5-63 22.4-112l-24.9-193.6c-10.6-47.7-38.7-77.5-74.6-77.5H349.5z" fill="#d81e06" p-id="5947"></path><path d="M649.7 366.7c-13.2 0-24-10.7-24-24 0-63.2-52.5-113.3-114.8-114.2-30.4 0-58.9 11.7-80.5 33.1-21.7 21.5-33.7 50.1-33.8 80.6-0.1 13.2-10.8 24.2-24 24.2s-24-10.4-24-23.7c0.2-44.1 17.2-84.7 48-115.2s70.5-46.6 114.9-47c89.3 0 162.1 72.8 162.1 162.2 0.1 13.3-10.6 24-23.9 24z" fill="#d81e06" opacity=".4" p-id="5948"></path><path d="M606.4 510.8H605c-13.2 0-24-10.7-24-24s10.7-24 24-24c13.2 0 24.7 10.7 24.7 24s-10 24-23.3 24zM419.8 510.8h-1.5c-13.2 0-24-10.7-24-24s10.7-24 24-24 24.7 10.7 24.7 24-9.9 24-23.2 24z" fill="#d81e06" p-id="5949"></path></svg>